<?xml version="1.0" encoding="iso-8859-1"?>
<!-- Generator: Adobe Illustrator 19.0.0, SVG Export Plug-In . SVG Version: 6.00 Build 0)  -->
<svg version="1.1" id="Layer_1" xmlns="http://www.w3.org/2000/svg" xmlns:xlink="http://www.w3.org/1999/xlink" x="0px" y="0px"
	 viewBox="0 0 511.999 511.999" style="enable-background:new 0 0 511.999 511.999;" xml:space="preserve">
<g>
	<g>
		<path d="M511.496,327.933c-0.893-3.548-2.102-7.496-3.383-11.676c-2.211-7.223-4.963-16.213-4.963-20.449
			c0-0.324-0.612-22.06-10.043-39.97c0.045-0.075,0.1-0.14,0.142-0.218c6.508-11.645,6.362-24.968,5.093-34.095
			c-0.721-5.19-1.85-9.468-2.671-12.143c-1.726-5.631-2.854-7.582-5.244-9.074c-3.752-2.347-8.704-1.334-11.227,2.298
			c-4.774,6.862-9.576,14.088-13,19.308c-7.229-13.301-19.206-21.081-19.972-21.569c-3.79-2.411-8.815-1.367-11.329,2.36
			c-0.227,0.335-0.448,0.672-0.663,1.01c-5.676-6.493-14.252-15.1-25.943-23.687c-21.151-15.537-57.068-34.058-108.061-34.058
			c-52.78,0-90,25.325-111.93,46.57c-24.409,23.647-37.909,49.918-37.909,59.037c0,2.233,0.882,6.967,2.736,12.97
			c-7.698,8.208-43.415,31.816-82.908,31.816c-21.976,0-36.379,1.093-46.7,3.542C12.79,302.449,0,308.409,0,322.348
			c0,30.308,71.708,34.833,114.453,34.833c4.58,0,8.294-3.713,8.294-8.294s-3.713-8.294-8.294-8.294
			c-15.222,0-28.179-0.541-39.188-1.438c31.872-1.535,55.165-8.131,69.698-13.777c13.539-5.259,25.186-11.962,32.52-18.527
			c7.938,7.767,17.768,13.518,29.686,14.707l15.389,23.082c1.515,2.274,4.053,3.654,6.784,3.692
			c0.378,0.006,38.091,0.623,59.194,8.343c0.94,0.344,1.902,0.507,2.849,0.507c3.383,0,6.56-2.086,7.789-5.446
			c1.574-4.302-0.638-9.064-4.94-10.638c-9.173-3.356-20.671-5.51-31.422-6.893l-5.099-20.396c1.618-0.642,3.178-1.288,4.709-1.923
			c10.073-4.178,18.774-7.786,37.81-7.786c18.767,0,28.636,7.521,40.064,16.229c4.894,3.73,10.074,7.658,16.109,10.985l6.731,20.195
			c0.993,2.98,3.585,5.143,6.696,5.588c0.185,0.025,18.615,2.7,33.618,8.391c0.969,0.367,1.962,0.541,2.939,0.541
			c3.346,0,6.499-2.04,7.756-5.354c1.624-4.283-0.531-9.071-4.814-10.696c-11.757-4.46-24.964-7.191-32.041-8.46l-1.033-3.1
			c3.82,0.68,7.94,1.068,12.44,1.068c19.85,0,36.284-10.698,47.716-30.976c5.113,3.553,11.956,8.117,18.878,12.154
			c8.638,5.038,20.122,15.992,24.232,21.32c3.113,4.034,7.839,6.349,12.966,6.349h3.078c5.107,0,9.833-2.306,12.967-6.326
			C511.657,337.999,512.738,332.869,511.496,327.933z M61.373,322.901c-21.54,0-33.346,0.854-38.884,4.734
			c-4.357-2.371-5.902-4.383-5.902-5.287c0-3.266,6.742-5.352,10.761-6.307c9.016-2.139,22.238-3.093,42.872-3.093
			c25.017,0,47.584-8.257,62.109-15.183c10.588-5.049,20.374-11.122,27.281-16.742c2.081,4.327,4.535,8.75,7.379,13.014
			C156.584,303.938,121.335,322.901,61.373,322.901z M233.98,331.871l-7.145-10.717c5.755-0.523,10.687-1.336,15.035-2.327
			l3.414,13.656C240.669,332.158,236.754,331.973,233.98,331.871z M211.816,305.207c-0.008,0-0.014,0-0.022,0c-0.01,0-0.02,0-0.03,0
			c-30.444,0.001-43.905-47.055-44.76-53.598c0.798-4.343,10.947-26.4,34.095-48.36c10.775-10.222,25.658-21.518,44.611-29.613
			c-4.545,24.852-12.351,75.549,10.301,122.952C245.323,301.02,235.201,305.201,211.816,305.207z M277.058,289.635
			c-1.889,0.39-3.67,0.822-5.364,1.286c-22.466-45.487-13.03-96.269-8.973-118.058c0.386-2.075,0.723-3.889,1-5.494
			c5.207-1.413,10.658-2.558,16.349-3.377C272.806,188.428,262.537,241.342,277.058,289.635z M298.865,287.524
			c-1.752,0.016-3.434,0.059-5.049,0.128c-16.141-49.731-2.08-107.483,4.118-125.061c0.765-0.012,1.524-0.034,2.297-0.034
			c5.117-0.001,10.144,0.215,15.097,0.604C305.389,187.492,292.502,239.889,298.865,287.524z M315.885,289.137
			c-4.759-29.733-0.837-60.033,3.431-80.567c4.201-20.212,9.738-35.827,13.146-43.231c7.061,1.255,13.937,2.927,20.614,5.033
			c-11.102,18.911-30.399,62.455-34.714,119.362C317.551,289.523,316.729,289.319,315.885,289.137z M426.814,290.209
			c-0.18,0.198-0.355,0.405-0.519,0.624c-0.98,1.307-1.508,2.809-1.626,4.326c-6.866,14.577-18.264,27.742-35.972,27.742
			c-17.661,0-27.247-7.305-38.348-15.763c-4.814-3.668-9.899-7.523-15.801-10.843c3.414-59.346,24.665-104.577,34.315-119.982
			c10.198,4.473,19.886,10.01,29.011,16.645c16.211,11.787,25.859,23.729,29.375,28.5c-3.358,18.105,3.421,34.947,6.18,40.805
			C433.091,268.541,431.117,279.4,426.814,290.209z M482.308,227.616c0.306,4.263,0.139,8.878-0.956,13.255
			c-1.645-1.356-3.419-2.58-5.321-3.651C477.137,235.506,479.419,231.984,482.308,227.616z M492.573,331.747
			c-4.992-6.423-18.072-19.08-28.925-25.41c-7.597-4.431-15.281-9.677-20.252-13.194c4.802-13.274,6.675-26.052,6.675-32.722
			c0-1.391-0.349-2.76-1.017-3.981c-0.117-0.213-9.942-18.538-4.48-35.968c0.861,0.879,1.745,1.846,2.616,2.892
			c6.032,7.238,8.604,14.701,7.648,22.182c-0.581,4.544,2.631,8.698,7.175,9.279c2.693,0.341,5.234-0.647,6.988-2.444
			c14.205,9.457,17.563,38.069,17.563,43.427c0,6.719,2.893,16.168,5.691,25.305c1.185,3.874,2.308,7.538,3.096,10.635H492.573z"/>
	</g>
</g>
<g>
</g>
<g>
</g>
<g>
</g>
<g>
</g>
<g>
</g>
<g>
</g>
<g>
</g>
<g>
</g>
<g>
</g>
<g>
</g>
<g>
</g>
<g>
</g>
<g>
</g>
<g>
</g>
<g>
</g>
</svg>
